<svg xmlns="http://www.w3.org/2000/svg" xmlns:xlink="http://www.w3.org/1999/xlink" width="135" height="135" viewBox="0 0 135 135">
    <defs>
        <path id="a" d="M0 85.446h90.734V0H0z"/>
    </defs>
    <g fill="none" fill-rule="evenodd">
        <circle cx="67.5" cy="67.5" r="67.5" fill="#4BA1A5" fill-rule="nonzero"/>
        <g transform="translate(28 24)">
            <path fill="#C8E2E2" stroke="#979797" d="M.019 67.532c.002 1.572.513 3.106 1.41 4.217.896 1.108 2.132 1.744 3.398 1.744h.606l2.556-.002 64.739-.023c1.266 0 2.5-.64 3.396-1.749.897-1.11 1.407-2.645 1.407-4.215l-.018-45.758L0 21.776.02 67.532z"/>
            <path fill="#9DCCCE" d="M.005 22.087l77.51-.028-.002-2.847-77.51.029zM7.967 5.556H4.805a4.85 4.85 0 0 0-3.398 1.41A4.842 4.842 0 0 0 0 10.364l.001 5.586 77.512-.029-.004-5.587c0-1.264-.51-2.502-1.408-3.397a4.831 4.831 0 0 0-3.398-1.406l-8.158.004.001 4.053a4.368 4.368 0 0 1-8.734.002l-.001-4.054-34.117.015.002 4.051a4.368 4.368 0 0 1-8.735.004V5.554l-4.995.002z"/>
            <path fill="#274E5F" d="M.004 19.242l77.51-.03v-3.29L.001 15.95zM19.569 9.605l-.002-7.351a2.24 2.24 0 0 0-4.48.002l.004 7.35a2.24 2.24 0 0 0 4.478-.002M62.42 9.589l-.001-7.35A2.238 2.238 0 0 0 60.178 0a2.239 2.239 0 0 0-2.239 2.24l.004 7.35a2.24 2.24 0 0 0 4.477-.002"/>
            <mask id="b" fill="#fff">
                <use xlink:href="#a"/>
            </mask>
            <path fill="#FEFEFE" d="M13.876 40.13h8.242v-8.242h-8.242zM27.506 40.13h8.244v-8.242h-8.244zM41.139 40.13h8.241v-8.242H41.14zM54.767 40.13h8.244v-8.242h-8.244zM13.876 51.86h8.242v-8.243h-8.242zM27.506 51.86h8.244v-8.243h-8.244zM41.139 51.86h8.241v-8.243H41.14zM54.767 51.86h8.244v-8.243h-8.244zM13.876 63.906h8.242v-8.242h-8.242zM27.506 63.906h8.244v-8.242h-8.244zM41.139 63.906h8.241v-8.242H41.14zM54.767 63.906h8.244v-8.242h-8.244z" mask="url(#b)"/>
            <path stroke="#274E5F" stroke-linecap="round" stroke-linejoin="round" stroke-width=".708" d="M59.702 84.792l-57.926.026M49.27 81.202l-37.063.002" mask="url(#b)"/>
            <path fill="#274E5F" d="M70.257 81.367c-11.228-.06-20.333-9.053-20.272-20.044.058-10.99 9.263-19.871 20.49-19.809 11.222.06 20.318 9.041 20.258 20.031-.059 10.993-9.254 19.884-20.476 19.822" mask="url(#b)"/>
            <path fill="#FEFEFE" d="M66.99 66.598l-.853-1.38-1.799.322 2.365-4.196h-4.61v11.031h7.86v-11.03zM72.073 53.755c.327-.469.712-1.236 1.106-1.504.398-.26.797-.398 1.2-.401h.004c.332 0 .657.133.875.326.22.197.334.558.334.81-.004.3-.158.993-.858 1.504-.664.483-1.818.98-3.59 1.324a6.28 6.28 0 0 1 .929-2.06zm-6.175.953c-.364-.229-.583-.46-.718-.664-.124-.208-.17-.564-.17-.742-.002-.298.146-.813.405-1.056.257-.244.602-.393.918-.393h.007c.401 0 .799.139 1.198.402.595.394 1.156 1.459 1.545 2.242.206.398.362.817.465 1.225-1.804-.19-2.974-.588-3.65-1.014zm14.028 1.371h-5.222c.306-.156.58-.32.822-.494.929-.665 1.417-1.507 1.417-2.343 0-.687-.325-1.67-.797-2.08a2.692 2.692 0 0 0-1.767-.656c-.713 0-1.38.245-1.946.626-.857.574-1.527 1.813-2.006 2.76-.021.047-.046.092-.071.14-.172-.368-.378-1.094-.613-1.428-.403-.58-.89-1.092-1.457-1.472-.568-.381-1.232-.626-1.946-.626-.712 0-1.362.301-1.85.761-.485.453-.828 1.483-.828 2.213a2.37 2.37 0 0 0 .38 1.28c.323.511.835.955 1.545 1.319h-4.805l.01 4.389h9.024v-4.389h1.1v4.389h9.02l-.01-4.389zM76.39 65.521l-1.797-.303-.848 1.397-2.928-5.2v10.96h7.821V61.343h-4.613z" mask="url(#b)"/>
        </g>
    </g>
</svg>
