<svg xmlns="http://www.w3.org/2000/svg" xmlns:xlink="http://www.w3.org/1999/xlink" width="151" height="135" viewBox="0 0 151 135">
    <defs>
        <path id="a" d="M0 86.255h150.789V.647H0z"/>
    </defs>
    <g fill="none" fill-rule="evenodd">
        <circle cx="76.5" cy="67.5" r="67.5" fill="#4BA1A5" fill-rule="nonzero"/>
        <path stroke="#274E5F" stroke-linecap="round" stroke-linejoin="round" stroke-width=".708" d="M57 104l-46 .03M53 101l-29 .002M77 53l41 .028M77 49.06L99 49"/>
        <g transform="translate(0 23)">
            <path fill="#C8E2E2" d="M64.951 13.86h-29.7v10.877h-14.85V12.116h8.992V.649H9.16v11.467h8.742v12.62H6.87v44.09h62.656l.01-50.07c0-2.705-2.054-4.897-4.586-4.897"/>
            <mask id="b" fill="#fff">
                <use xlink:href="#a"/>
            </mask>
            <path fill="#274E5F" d="M38.136 24.915h27.811v-8.089H38.136zM10.743 9.975h17.152V2.698H10.743zM20.9 38.382h4.746v-3.466h-4.747zM27.895 38.382h4.745v-3.466h-4.745zM34.888 38.382h4.745v-3.466h-4.745zM20.9 43.715h4.746v-3.466h-4.747zM27.895 43.715h4.745v-3.466h-4.745zM34.888 43.715h4.745v-3.466h-4.745zM20.9 49.05h4.746v-3.466h-4.747zM27.895 49.05h4.745v-3.466h-4.745zM34.888 49.05h4.745v-3.466h-4.745zM43.381 38.649h4.747v-3.466h-4.747zM50.374 38.649h4.747v-3.466h-4.747zM57.37 38.649h4.747v-3.466H57.37zM43.381 43.983h4.747v-3.467h-4.747zM50.374 43.983h4.747v-3.467h-4.747zM57.37 43.983h4.747v-3.467H57.37zM43.381 49.315h4.747v-3.466h-4.747zM50.374 49.315h4.747v-3.466h-4.747zM57.37 49.315h4.747v-3.466H57.37zM57.536 31.848H61.7v-3.91h-4.164z" mask="url(#b)"/>
            <path fill="#9DCCCE" d="M74.522 72.56H.001V62.133c0-2.832 2.15-5.128 4.806-5.128h64.909c2.656 0 4.806 2.296 4.806 5.128V72.56z" mask="url(#b)"/>
            <path fill="#274E5F" d="M30.892 65.582h13.24v-2.664h-13.24z" mask="url(#b)"/>
            <path fill="#F5F5F5" d="M150.614 70.76v15.496H77.13V36.323h73.484V75.27" mask="url(#b)"/>
            <path fill="#284E5F" d="M77.13 42.675h73.66v-6.353H77.13z" mask="url(#b)"/>
            <path fill="#FEFEFE" d="M83.79 40.476h1.784v-1.787H83.79zM80.215 40.476h1.787v-1.787h-1.787z" mask="url(#b)"/>
            <path fill="#274E5F" d="M71.548 81.41c-11.034-.059-19.983-8.898-19.925-19.7.059-10.802 9.106-19.531 20.14-19.47 11.03.06 19.97 8.886 19.911 19.688-.059 10.804-9.095 19.543-20.126 19.482" mask="url(#b)"/>
            <path fill="#FEFEFE" d="M69.783 69.965a1.966 1.966 0 0 1-1.393-.576l-4.921-4.92a1.969 1.969 0 1 1 2.785-2.785l3.529 3.529 10.17-10.172a1.975 1.975 0 0 1 2.785 0c.768.77.768 2.017 0 2.785L71.175 69.389a1.966 1.966 0 0 1-1.392.576" mask="url(#b)"/>
            <path fill="#284E5F" d="M118.008 72.46c-1.052-.162-2.125-.248-3.155-.5-3.654-.901-6.48-4.41-6.816-8.166-.437-4.852 2.891-9.385 7.856-10.202 5.284-.87 9.895 2.645 10.839 7.49.105.527.127 1.068.195 1.652h-2.452c-.085-1.29-.413-2.476-1.108-3.553-1.64-2.542-4.572-3.752-7.51-3.085-2.772.63-4.957 3.045-5.355 5.921-.51 3.705 2.149 7.258 5.862 7.764 1.056.143 2.133.171 3.202.171 5.377.018 10.754.016 16.13-.002.54-.001.76.117.718.698-.046.6.017 1.206.031 1.812h-18.437zM103.938 72.46l-.016-15.641v-.85h-3.687v-2.496h6.129V72.46h-2.426z" mask="url(#b)"/>
            <path fill="#274E5F" d="M97.387 57.296h5.216v15.163h-2.425V59.601h-2.79z" mask="url(#b)"/>
            <path fill="#284E5F" d="M122.868 62.74h-2.314c-.138-.428-.225-.85-.41-1.222a3 3 0 0 0-3.532-1.55c-1.368.401-2.268 1.714-2.164 3.16.105 1.475 1.192 2.64 2.658 2.8.703.076 1.412.111 2.115.113 5.457.007 10.914.003 16.37.003h.765v2.316c-.195.014-.37.037-.546.037l-17.582-.007c-1.223 0-2.415-.149-3.5-.787-2.145-1.262-3.152-3.862-2.426-6.28.745-2.48 2.982-3.999 5.66-3.837 2.324.142 4.38 2.063 4.791 4.473.039.237.072.477.115.78M131.933 53.644c.94-.007 1.618.637 1.632 1.556.014.943-.676 1.663-1.602 1.672-.902.007-1.665-.748-1.662-1.645.006-.885.72-1.576 1.632-1.583" mask="url(#b)"/>
        </g>
    </g>
</svg>
