<svg xmlns="http://www.w3.org/2000/svg" width="54" height="52" viewBox="0 0 54 52">
    <g fill="none" fill-rule="evenodd">
        <path fill="#FEFEFE" d="M21.094 16.096h-7.958v3.486h6.963c.995 0 1.492.496 1.492 1.492v1.246l-8.952 6.472v4.73h13.429v-3.485h-8.332l5.347-3.859c.431-.315.829-.63 1.194-.945a6.08 6.08 0 0 0 .945-1.022c.265-.364.473-.763.621-1.195a4.38 4.38 0 0 0 .225-1.444v-.498c0-1.741-.395-3.007-1.182-3.796-.788-.787-2.051-1.182-3.792-1.182M39.992 22.817h-4.476v3.735h-4.227l5.968-10.456h-4.973l-5.969 10.456v3.485h9.2v3.485h4.477v-3.485h1.741v-3.485h-1.74z"/>
        <path stroke="#254E5F" stroke-linecap="round" stroke-linejoin="round" stroke-width="3" d="M44.542 41.642c-4.474 5.313-11.172 8.689-18.657 8.688C12.42 50.327 1.506 39.395 1.509 25.914 1.512 12.434 12.43 1.507 25.896 1.51c11.205.003 20.642 7.57 23.494 17.879"/>
        <path fill="#254E5F" d="M44.52 18.804l5.752 7.122 3.284-8.547z"/>
    </g>
</svg>
