<svg xmlns="http://www.w3.org/2000/svg" xmlns:xlink="http://www.w3.org/1999/xlink" width="52" height="52" viewBox="0 0 52 52">
    <defs>
        <path id="a" d="M0 .17h22.245v11.569H.001z"/>
    </defs>
    <g fill="none" fill-rule="evenodd">
        <path stroke="#254E5F" stroke-width="3" d="M50 26.08c0 13.256-10.745 24-24 24-13.254 0-24-10.744-24-24 0-13.255 10.746-24 24-24 13.255 0 24 10.745 24 24z"/>
        <path fill="#FEFEFE" d="M16.926 37.831h8.508V26.153h-8.508zM26.684 37.831h8.501V26.153h-8.501z"/>
        <g transform="translate(15 12.831)">
            <mask id="b" fill="#fff">
                <use xlink:href="#a"/>
            </mask>
            <path fill="#FEFEFE" d="M13.113 3.942c.38-.543.828-1.436 1.285-1.746.462-.302.928-.462 1.394-.466h.004c.387 0 .762.155 1.016.38.255.228.389.646.389.94-.005.349-.186 1.152-.996 1.746-.773.56-2.113 1.138-4.17 1.54a7.256 7.256 0 0 1 1.078-2.394zM5.942 5.05c-.422-.266-.676-.534-.832-.771-.146-.242-.198-.656-.198-.862-.005-.346.169-.946.47-1.226.297-.284.699-.457 1.065-.457h.009c.466 0 .928.16 1.39.466.692.457 1.343 1.695 1.795 2.604.238.46.419.95.54 1.423-2.095-.22-3.454-.681-4.24-1.177zm16.29 1.59H16.17c.354-.18.673-.37.954-.572 1.077-.772 1.646-1.751 1.646-2.721 0-.798-.38-1.94-.927-2.414A3.12 3.12 0 0 0 15.792.17c-.828 0-1.601.284-2.26.728-.997.664-1.773 2.105-2.33 3.204-.025.056-.055.108-.081.163-.202-.427-.44-1.271-.711-1.66-.471-.672-1.035-1.267-1.694-1.707C8.055.454 7.284.17 6.456.17c-.828 0-1.583.349-2.15.883-.562.527-.96 1.72-.96 2.57a2.77 2.77 0 0 0 .44 1.488c.376.59.97 1.108 1.795 1.53H0l.012 5.098h10.479V6.64h1.275v5.098h10.479l-.013-5.098z" mask="url(#b)"/>
        </g>
    </g>
</svg>
