<svg xmlns="http://www.w3.org/2000/svg" width="55" height="52" viewBox="0 0 55 52">
    <g fill="none" fill-rule="evenodd">
        <path stroke="#254E5F" stroke-linecap="round" stroke-linejoin="round" stroke-width="3" d="M45.144 41.454C40.661 46.679 33.948 50 26.444 50 12.943 50 2 39.255 2 26S12.943 2 26.443 2C37.675 2 47.138 9.44 50 19.573"/>
        <path fill="#254E5F" d="M43.52 19.8l7.309 7.12L55 18.373z"/>
        <path fill="#FEFEFE" d="M28.473 27.578a3.584 3.584 0 0 1-3.582 3.587 3.585 3.585 0 0 1-3.583-3.587 3.585 3.585 0 0 1 3.583-3.586 3.584 3.584 0 0 1 3.582 3.586"/>
        <path stroke="#FEFEFE" stroke-linecap="round" stroke-linejoin="round" stroke-width="3" d="M24.852 13.662v13.84l16.239 4.174"/>
    </g>
</svg>
