<svg xmlns="http://www.w3.org/2000/svg" width="55" height="53" viewBox="0 0 55 53">
    <g fill="none" fill-rule="evenodd">
        <path stroke="#FEFEFE" stroke-width="3" d="M38.364 10.97c2.924 0 5.299 2.284 5.299 5.097 0 2.813-2.375 5.098-5.3 5.098-2.924 0-5.299-2.285-5.299-5.098 0-2.813 2.375-5.097 5.3-5.097zM24.99 18.259h1.92a11.022 11.022 0 0 0 1.74 4.038l-1.361 1.308a1.166 1.166 0 0 0 0 1.692l1.478 1.422a1.278 1.278 0 0 0 1.76 0l1.361-1.308a11.763 11.763 0 0 0 4.198 1.671v1.848c0 .665.56 1.195 1.24 1.195h2.096c.69 0 1.24-.54 1.24-1.195v-1.848a11.908 11.908 0 0 0 4.2-1.67l1.36 1.307a1.278 1.278 0 0 0 1.758 0l1.479-1.422a1.163 1.163 0 0 0 0-1.692l-1.36-1.308a10.887 10.887 0 0 0 1.738-4.038h1.92c.691 0 1.243-.54 1.243-1.195V15.06c0-.665-.562-1.195-1.242-1.195h-1.921a10.968 10.968 0 0 0-1.738-4.038l1.36-1.308a1.163 1.163 0 0 0 0-1.692l-1.49-1.422a1.278 1.278 0 0 0-1.76 0L44.85 6.714a11.772 11.772 0 0 0-4.198-1.671V3.195c0-.665-.56-1.195-1.242-1.195h-2.093c-.691 0-1.241.54-1.241 1.195v1.848c-1.533.29-2.948.872-4.199 1.67l-1.35-1.307a1.278 1.278 0 0 0-1.76 0L27.29 6.828a1.166 1.166 0 0 0 0 1.692l1.36 1.308a10.901 10.901 0 0 0-1.738 4.038H24.99c-.691 0-1.24.54-1.24 1.195v2.014c0 .654.549 1.184 1.24 1.184z"/>
        <path fill="#FEFEFE" d="M38.999 40.658a.747.747 0 0 1-.966.39l-2.48-.992a1.008 1.008 0 0 0-1.207.348 14.931 14.931 0 0 1-4.225 4.064.923.923 0 0 0-.362 1.158l1.02 2.386a.701.701 0 0 1-.406.928l-2.7 1.087c-.374.147-.812-.021-.966-.39l-1.031-2.385a.995.995 0 0 0-1.108-.57c-1.975.38-3.984.38-5.97 0-.46-.084-.933.148-1.108.57l-1.03 2.384a.76.76 0 0 1-.966.391l-2.7-1.076a.725.725 0 0 1-.406-.39.685.685 0 0 1 0-.55l1.03-2.385a.922.922 0 0 0-.36-1.158 14.914 14.914 0 0 1-4.225-4.064 1.01 1.01 0 0 0-1.209-.348l-2.479.991c-.384.15-.812-.02-.965-.39L3.06 38.063a.7.7 0 0 1 .405-.928l2.48-.992c.439-.18.69-.622.592-1.066a14.106 14.106 0 0 1 0-5.74.945.945 0 0 0-.592-1.065l-2.48-.992a.716.716 0 0 1-.405-.39.677.677 0 0 1 0-.55l1.119-2.594a.722.722 0 0 1 .405-.39.766.766 0 0 1 .57 0l2.481.991c.439.179.944.032 1.207-.349a14.923 14.923 0 0 1 4.225-4.06.93.93 0 0 0 .362-1.161L12.4 16.39a.713.713 0 0 1 .405-.938l2.698-1.077a.752.752 0 0 1 .968.39l1.03 2.385c.21.486.79.718 1.296.517a.943.943 0 0 0 .537-1.246l-1.032-2.384c-.583-1.34-2.172-1.972-3.565-1.424l-2.7 1.077a2.669 2.669 0 0 0-1.482 1.424 2.575 2.575 0 0 0 0 2.015l.724 1.677A16.894 16.894 0 0 0 7.648 22.3l-1.746-.698a2.89 2.89 0 0 0-2.095 0 2.671 2.671 0 0 0-1.482 1.425l-1.119 2.596a2.56 2.56 0 0 0 0 2.014c.274.644.801 1.15 1.48 1.425l1.746.697a15.523 15.523 0 0 0 0 4.938l-1.746.696c-1.393.559-2.052 2.089-1.48 3.43l1.12 2.562c.57 1.34 2.172 1.973 3.564 1.425l1.746-.696a16.954 16.954 0 0 0 3.633 3.492l-.726 1.678a2.572 2.572 0 0 0 0 2.014c.276.644.803 1.15 1.483 1.424l2.7 1.077c1.392.55 2.993-.085 3.566-1.425l.724-1.677c1.712.254 3.423.254 5.136 0l.723 1.677c.44 1.015 1.46 1.626 2.524 1.626.352 0 .702-.064 1.042-.2l2.7-1.078c1.394-.558 2.052-2.088 1.48-3.428l-.723-1.677a16.93 16.93 0 0 0 3.633-3.493l1.745.696c1.393.56 2.994-.083 3.566-1.423L41.96 38.8a2.566 2.566 0 0 0 0-2.017 2.672 2.672 0 0 0-1.48-1.422L38 34.37c-.506-.201-1.086.03-1.296.516a.944.944 0 0 0 .537 1.246l2.482.992c.185.073.33.21.406.39.077.179.077.368 0 .548l-1.13 2.596z"/>
        <path fill="#254E5F" stroke="#254E5F" stroke-width="1.5" d="M38.999 40.658a.747.747 0 0 1-.966.39l-2.48-.992a1.008 1.008 0 0 0-1.207.348 14.931 14.931 0 0 1-4.225 4.064.923.923 0 0 0-.362 1.158l1.02 2.386a.701.701 0 0 1-.406.928l-2.7 1.087c-.374.147-.812-.021-.966-.39l-1.031-2.385a.995.995 0 0 0-1.108-.57c-1.975.38-3.984.38-5.97 0-.46-.084-.933.148-1.108.57l-1.03 2.384a.76.76 0 0 1-.966.391l-2.7-1.076a.725.725 0 0 1-.406-.39.685.685 0 0 1 0-.55l1.03-2.385a.922.922 0 0 0-.36-1.158 14.914 14.914 0 0 1-4.225-4.064 1.01 1.01 0 0 0-1.209-.348l-2.479.991c-.384.15-.812-.02-.965-.39L3.06 38.063a.7.7 0 0 1 .405-.928l2.48-.992c.439-.18.69-.622.592-1.066a14.106 14.106 0 0 1 0-5.74.945.945 0 0 0-.592-1.065l-2.48-.992a.716.716 0 0 1-.405-.39.677.677 0 0 1 0-.55l1.119-2.594a.722.722 0 0 1 .405-.39.766.766 0 0 1 .57 0l2.481.991c.439.179.944.032 1.207-.349a14.923 14.923 0 0 1 4.225-4.06.93.93 0 0 0 .362-1.161L12.4 16.39a.713.713 0 0 1 .405-.938l2.698-1.077a.752.752 0 0 1 .968.39l1.03 2.385c.21.486.79.718 1.296.517a.943.943 0 0 0 .537-1.246l-1.032-2.384c-.583-1.34-2.172-1.972-3.565-1.424l-2.7 1.077a2.669 2.669 0 0 0-1.482 1.424 2.575 2.575 0 0 0 0 2.015l.724 1.677A16.894 16.894 0 0 0 7.648 22.3l-1.746-.698a2.89 2.89 0 0 0-2.095 0 2.671 2.671 0 0 0-1.482 1.425l-1.119 2.596a2.56 2.56 0 0 0 0 2.014c.274.644.801 1.15 1.48 1.425l1.746.697a15.523 15.523 0 0 0 0 4.938l-1.746.696c-1.393.559-2.052 2.089-1.48 3.43l1.12 2.562c.57 1.34 2.172 1.973 3.564 1.425l1.746-.696a16.954 16.954 0 0 0 3.633 3.492l-.726 1.678a2.572 2.572 0 0 0 0 2.014c.276.644.803 1.15 1.483 1.424l2.7 1.077c1.392.55 2.993-.085 3.566-1.425l.724-1.677c1.712.254 3.423.254 5.136 0l.723 1.677c.44 1.015 1.46 1.626 2.524 1.626.352 0 .702-.064 1.042-.2l2.7-1.078c1.394-.558 2.052-2.088 1.48-3.428l-.723-1.677a16.93 16.93 0 0 0 3.633-3.493l1.745.696c1.393.56 2.994-.083 3.566-1.423L41.96 38.8a2.566 2.566 0 0 0 0-2.017 2.672 2.672 0 0 0-1.48-1.422L38 34.37c-.506-.201-1.086.03-1.296.516a.944.944 0 0 0 .537 1.246l2.482.992c.185.073.33.21.406.39.077.179.077.368 0 .548l-1.13 2.596z"/>
        <path stroke="#254E5F" stroke-width="2" d="M21.546 25.761a.962.962 0 0 0 .975-.949c0-.52-.445-.937-.987-.937h-.012c-2.319.02-4.487.896-6.113 2.48-1.625 1.585-2.514 3.69-2.492 5.91.022 2.23.932 4.316 2.58 5.879 1.637 1.553 3.793 2.398 6.08 2.398h.065c2.32-.021 4.488-.897 6.114-2.48 1.626-1.586 2.515-3.692 2.494-5.911 0-.521-.445-.938-.986-.938h-.012a.962.962 0 0 0-.976.948c.012 1.72-.671 3.346-1.93 4.575-1.256 1.23-2.936 1.908-4.725 1.918h-.054c-1.766 0-3.447-.656-4.704-1.854-1.28-1.21-1.984-2.826-1.996-4.544-.01-1.721.672-3.346 1.93-4.576a6.903 6.903 0 0 1 4.749-1.919z"/>
        <path fill="#FEFEFE" d="M38.917 20.887c-2.474 0-4.476-1.927-4.476-4.304 0-2.378 2.002-4.303 4.476-4.303 2.472 0 4.475 1.925 4.475 4.303 0 2.377-2.014 4.304-4.475 4.304m0-10.554c-3.592 0-6.5 2.807-6.5 6.25 0 3.454 2.919 6.25 6.5 6.25 3.591 0 6.5-2.808 6.5-6.25 0-3.443-2.92-6.25-6.5-6.25"/>
    </g>
</svg>
