<svg xmlns="http://www.w3.org/2000/svg" width="324" height="57" viewBox="0 0 324 57">
    <g fill="none" fill-rule="nonzero">
        <path fill="#FFF" d="M80.979 40.001a1.97 1.97 0 0 1-1.775-.968 2.02 2.02 0 0 1-.01-2.041 1.97 1.97 0 0 1 1.764-.987l12.401-.061a1.964 1.964 0 0 1 1.402.577 2.011 2.011 0 0 1 .013 2.827c-.37.377-.871.59-1.395.59l-12.4.063zm40.882-7.676a7.775 7.775 0 0 1 2.276 5.462 7.773 7.773 0 0 1-2.223 5.485 7.606 7.606 0 0 1-5.402 2.303l-3.047.013.008 1.627a2.001 2.001 0 0 1-.977 1.734c-.609.36-1.36.364-1.973.011a2 2 0 0 1-.996-1.723l-.007-1.627-3.049.013a7.603 7.603 0 0 1-5.423-2.246 7.769 7.769 0 0 1-2.277-5.462 7.77 7.77 0 0 1 2.223-5.485 7.61 7.61 0 0 1 5.402-2.302l3.048-.015-.009-1.627a1.985 1.985 0 0 1 1.964-2.006 1.985 1.985 0 0 1 1.982 1.988l.008 1.627 3.047-.017a7.599 7.599 0 0 1 5.425 2.246v.001zm-2.75 8.141a3.765 3.765 0 0 0-.025-5.306 3.69 3.69 0 0 0-2.63-1.094l-3.048.016.038 7.517 3.047-.015a3.69 3.69 0 0 0 2.617-1.118h.001zm-9.61 1.154l-.04-7.517-3.046.013a3.679 3.679 0 0 0-2.617 1.121 3.757 3.757 0 0 0-1.082 2.658 3.769 3.769 0 0 0 1.107 2.648 3.688 3.688 0 0 0 2.63 1.09l3.047-.013zm54.498 1.4a1.983 1.983 0 0 1 1.982 1.985l.019 3.847c.005 1.102-.873 2-1.962 2.006a1.984 1.984 0 0 1-1.982-1.986l-.009-1.852-.765.003-14.173.071.01 1.853a2.007 2.007 0 0 1-.572 1.413 1.96 1.96 0 0 1-2.789.014 2.006 2.006 0 0 1-.585-1.408l-.019-3.847c-.003-.6.261-1.169.719-1.55a1.956 1.956 0 0 1 1.642-.417c.51-.335 1.015-.884 1.412-1.568.43-.74.709-1.61.703-2.509l-.045-9.238a1.997 1.997 0 0 1 .509-1.345l.029-.032.001-.003.032-.033.002-.002.032-.032.001-.002.035-.03v-.002l.034-.031v-.001l.036-.03h.002l.035-.03v-.001l.036-.029h.002l.038-.029.039-.027v-.001l.038-.026h.001l.039-.026h.002l.04-.023c.298-.176.637-.27.982-.27l11.639-.059c.9-.004 1.688.608 1.917 1.488l.012.047.01.048.01.05.009.048.007.05.005.05.004.051.005.05v.002l.002.05v.054l.065 13.261.764-.002zm-4.709.023l-.055-11.27-7.694.038.035 7.245a8.89 8.89 0 0 1-.974 4.03l8.688-.043zm-29.665-3.285a1.987 1.987 0 0 1-1.986-1.986c-.002-.53.204-1.04.572-1.417.37-.376.87-.59 1.395-.592l12.401-.062a1.97 1.97 0 0 1 1.775.97 2.02 2.02 0 0 1 .01 2.04 1.97 1.97 0 0 1-1.766.986l-12.4.061zm-56.757-8.81a10.061 10.061 0 0 1 2.942 7.08 10.06 10.06 0 0 1-2.873 7.108 9.839 9.839 0 0 1-14.03.071 10.065 10.065 0 0 1-2.941-7.08 10.052 10.052 0 0 1 2.871-7.107 9.836 9.836 0 0 1 7.003-2.973 9.835 9.835 0 0 1 7.028 2.902zM70.135 42.33a6.057 6.057 0 0 0 1.728-4.282 6.05 6.05 0 0 0-1.77-4.263 5.927 5.927 0 0 0-8.452.043 6.058 6.058 0 0 0-1.73 4.28 6.051 6.051 0 0 0 1.772 4.264 5.927 5.927 0 0 0 8.452-.042zM0 29.277L45.54 3v52L0 29.277z"/>
        <path fill="#254E5F" d="M115.527 13.267c.691.576 1.038 1.377 1.043 2.409.005 1.028-.334 1.834-1.02 2.42-.684.581-1.573.954-2.667 1.116l.005.968a.34.34 0 0 1-.103.25.334.334 0 0 1-.25.107l-1.72.008a.338.338 0 0 1-.252-.102.339.339 0 0 1-.107-.249l-.003-.967c-1.097-.153-1.99-.516-2.68-1.094-.69-.578-1.038-1.38-1.045-2.408-.003-1.03.337-1.839 1.021-2.42.686-.585 1.574-.958 2.668-1.12l-.004-.969a.337.337 0 0 1 .104-.25.347.347 0 0 1 .248-.107l1.721-.006a.33.33 0 0 1 .25.104.334.334 0 0 1 .107.247l.005.969c1.097.15 1.99.515 2.68 1.093v.001zm-2.627 3.99c.92-.187 1.382-.713 1.378-1.57-.004-.858-.473-1.383-1.393-1.556l-.166-.03.015 3.188.166-.032zm-2.318.042l-.016-3.189-.165.032c-.919.184-1.384.712-1.378 1.57.003.856.472 1.38 1.392 1.556l.167.03zm53.042 2.525c.027.06.045.123.052.187a.268.268 0 0 1-.081.195.264.264 0 0 1-.193.08l-1.576.008a.53.53 0 0 1-.334-.09.448.448 0 0 1-.157-.217l-.355-1.033-3.328.017-.345 1.034a.435.435 0 0 1-.154.22.525.525 0 0 1-.333.095l-1.575.007a.273.273 0 0 1-.195-.079.268.268 0 0 1-.082-.192c0-.042.015-.105.049-.19l2.688-7.864a.695.695 0 0 1 .199-.294.531.531 0 0 1 .362-.12l2.028-.01a.54.54 0 0 1 .364.116.72.72 0 0 1 .201.294l2.765 7.836zm-5.331-2.789l2.028-.01-1.03-2.987-.998 2.997zm-13.247-1.118l.02 4.124a.32.32 0 0 1-.099.236.327.327 0 0 1-.237.102l-1.638.007a.316.316 0 0 1-.24-.098.313.313 0 0 1-.1-.236l-.04-8.05a.314.314 0 0 1 .098-.238.33.33 0 0 1 .238-.1l1.45-.007c.234-.002.414.11.541.334l2.043 3.44 2.009-3.46c.124-.226.304-.339.536-.34l1.452-.008c.093 0 .171.034.24.099a.322.322 0 0 1 .1.237l.04 8.05a.327.327 0 0 1-.099.238.32.32 0 0 1-.238.1l-1.638.008a.321.321 0 0 1-.238-.098.316.316 0 0 1-.101-.236l-.02-4.125-1.168 2.06a.917.917 0 0 1-.191.227.42.42 0 0 1-.27.089l-.8.004a.418.418 0 0 1-.27-.086.944.944 0 0 1-.194-.226l-1.186-2.047zm-6.744-3.488c.616.49.927 1.216.93 2.17.006.955-.297 1.682-.908 2.185-.61.502-1.457.756-2.542.76l-1.601.008.013 2.542c0 .09-.034.172-.1.237a.318.318 0 0 1-.237.103l-1.64.006a.309.309 0 0 1-.237-.1.31.31 0 0 1-.102-.234l-.039-8.05a.32.32 0 0 1 .1-.238.328.328 0 0 1 .237-.101l3.576-.018c1.085-.005 1.936.238 2.55.73zm-1.711 2.923c.218-.162.33-.41.327-.741-.001-.333-.113-.58-.335-.741-.222-.161-.516-.24-.882-.24l-1.54.008.01 1.971 1.539-.009c.367 0 .66-.084.88-.248zm-8.859-.358c.018.23.029.604.031 1.12.003.507-.004.871-.018 1.095a3.605 3.605 0 0 1-.513 1.718c-.308.512-.751.92-1.325 1.22-.574.302-1.258.454-2.05.458-.792.004-1.475-.14-2.053-.438a3.295 3.295 0 0 1-1.34-1.207 3.615 3.615 0 0 1-.527-1.712c-.019-.448-.028-.813-.03-1.096 0-.374.006-.748.019-1.121.03-.633.201-1.203.51-1.715.32-.523.78-.947 1.328-1.224.574-.302 1.256-.454 2.049-.458.792-.005 1.476.142 2.053.437.577.297 1.024.7 1.339 1.21.316.508.491 1.08.529 1.711l-.002.002zm-2.303 2.165c.023-.3.034-.652.032-1.06.002-.345-.012-.69-.042-1.034-.044-.44-.198-.79-.462-1.05-.263-.262-.642-.39-1.134-.388-.491.002-.869.135-1.13.399-.263.262-.412.614-.451 1.055-.026.344-.037.689-.032 1.034 0 .41.015.76.042 1.06.044.439.196.79.46 1.05.265.262.643.39 1.136.387.491-.002.869-.136 1.13-.397.261-.263.41-.614.451-1.056zm-22.376-5.299c.092 0 .17.034.239.099a.328.328 0 0 1 .101.237l.007 1.32a.326.326 0 0 1-.1.237.323.323 0 0 1-.238.103l-2.202.01.032 6.392a.32.32 0 0 1-.099.237.318.318 0 0 1-.237.102l-1.638.008a.318.318 0 0 1-.239-.101.314.314 0 0 1-.1-.234l-.032-6.392-2.202.01a.321.321 0 0 1-.239-.099.328.328 0 0 1-.102-.237l-.005-1.318a.33.33 0 0 1 .098-.24.327.327 0 0 1 .238-.1l6.718-.034zm-9.732 8.311a.579.579 0 0 1 .05.187.265.265 0 0 1-.08.193.265.265 0 0 1-.194.082l-1.576.008a.517.517 0 0 1-.332-.09.433.433 0 0 1-.157-.22l-.355-1.03-3.327.015-.347 1.037a.46.46 0 0 1-.154.219.53.53 0 0 1-.331.092l-1.577.009a.265.265 0 0 1-.195-.08.262.262 0 0 1-.08-.191.525.525 0 0 1 .047-.189L87.4 12.35a.708.708 0 0 1 .199-.294.545.545 0 0 1 .362-.12l2.027-.01a.534.534 0 0 1 .363.116c.092.078.162.18.202.294l2.766 7.836h.002zm-5.332-2.79l2.027-.01-1.028-2.987-.999 2.997zm-12.16.348c.005.986-.273 1.754-.834 2.304-.56.546-1.333.822-2.318.826h-.199a.312.312 0 0 1-.237-.098.317.317 0 0 1-.102-.235l-.006-1.321a.316.316 0 0 1 .099-.237.318.318 0 0 1 .236-.102c.376 0 .644-.091.806-.265.162-.176.242-.464.24-.86l-.025-5.398c0-.09.03-.17.097-.237a.324.324 0 0 1 .236-.102l6.294-.031c.09 0 .17.033.238.101a.317.317 0 0 1 .103.236l.039 8.05a.32.32 0 0 1-.1.236.324.324 0 0 1-.237.101l-1.64.008a.312.312 0 0 1-.237-.099.318.318 0 0 1-.101-.235l-.032-6.394-2.34.013.02 3.738v.001zm-7.922 2.692a.314.314 0 0 1-.1.237.318.318 0 0 1-.237.102l-1.638.008a.324.324 0 0 1-.239-.1.323.323 0 0 1-.102-.236l-.03-6.392-3.027.014.03 6.394a.32.32 0 0 1-.098.236.325.325 0 0 1-.237.103l-1.64.006a.321.321 0 0 1-.237-.098.32.32 0 0 1-.103-.236l-.039-8.05a.323.323 0 0 1 .1-.238.325.325 0 0 1 .237-.1l6.981-.035c.09 0 .17.032.238.098a.318.318 0 0 1 .1.237l.04 8.051v-.001zM24 32.79V0l29.096 16.25L24 32.79h.001zm181.729-9.024V13.91h2.02l2.867 4.08 2.867-4.081h2.007v9.857h-2.007V17.02l-2.272 3.17h-1.13l-2.317-3.171v6.747h-2.035zm12.498 0l4.237-9.913h1.952l4.236 9.914h-2.162l-.975-2.281h-4.18l-.975 2.28h-2.133zm3.743-3.958h2.895l-1.44-3.42-1.455 3.42zm9.404 3.958V13.91h7.133v1.815h-5.098v8.04h-2.035zm7.285 0l4.238-9.913h1.952l4.236 9.914h-2.162l-.976-2.281h-4.18l-.974 2.28h-2.134zm3.745-3.958h2.894l-1.44-3.42-1.454 3.42zm8.81 3.238v-1.97c.864.607 2.176 1 3.291 1 1.512 0 2.388-.535 2.388-1.437 0-.789-.792-1.225-2.105-1.225h-1.243V17.71h1.483c1.06 0 1.597-.366 1.597-1.084 0-.662-.706-1.042-1.852-1.042-1.13 0-2.188.24-3.163.732v-1.872c.918-.493 2.005-.734 3.261-.734 1.146 0 2.05.255 2.727.776.693.52 1.032 1.197 1.032 2.027 0 .999-.65 1.676-1.342 1.971.96.352 1.695 1.17 1.695 2.366 0 .89-.381 1.62-1.13 2.226-.748.591-1.78.887-3.065.887-1.44 0-2.627-.309-3.573-.917zm10.887.72V13.91h2.035v6.418l4.789-6.42h1.75v9.858h-2.019v-6.464l-4.845 6.464h-1.71zm12.174 0V13.91h2.035v3.687h4.463V13.91h2.02v9.857h-2.02v-4.324h-4.463v4.324h-2.035zM205.73 40.662v-9.855h8.277v9.855h-2.02v-8.04h-4.222v8.04h-2.035zm11.876 0v-9.855h4.323c1.059 0 1.908.281 2.513.829.623.548.934 1.254.934 2.14 0 .888-.31 1.604-.934 2.156-.605.547-1.454.829-2.513.829h-2.288v3.9h-2.035v.001zm2.035-5.632h2.147c.975 0 1.553-.435 1.553-1.224 0-.79-.578-1.225-1.553-1.225h-2.147v2.45zm8.684 5.632v-9.855h2.034v6.419l4.788-6.42h1.75v9.856h-2.019v-6.464l-4.843 6.464h-1.71zm11.185-1.914c.198.07.437.112.72.112.537 0 .89-.366 1.074-1.085.183-.717.295-2.085.325-4.082l.04-2.888h6.98v9.856h-2.02v-8.038h-2.995l-.057 1.997c-.07 2.295-.325 3.887-.792 4.775-.465.872-1.27 1.308-2.442 1.308-.353 0-.635-.042-.834-.125v-1.83h.001zm13.852-6.645c.976-1.003 2.203-1.495 3.673-1.495 1.469 0 2.683.492 3.659 1.495.973.983 1.467 2.193 1.467 3.629 0 1.424-.494 2.634-1.468 3.635-.975 1.001-2.19 1.492-3.658 1.492-1.47 0-2.698-.491-3.671-1.492-.976-1-1.456-2.21-1.456-3.635 0-1.436.48-2.646 1.454-3.629zm3.673 6.857c.876 0 1.596-.31 2.174-.916.58-.606.876-1.38.876-2.312 0-.927-.295-1.702-.876-2.308-.578-.605-1.297-.915-2.174-.915s-1.61.31-2.19.915c-.578.606-.86 1.381-.86 2.308 0 .933.282 1.707.86 2.31.58.607 1.313.917 2.19.917v.001zm6.678 1.702l4.18-5.11-3.756-4.745h2.5l3.249 4.153v-4.153h2.033v4.153l3.263-4.153h2.499l-3.77 4.746 4.194 5.11h-2.655l-3.53-4.35v4.35h-2.034v-4.35l-3.53 4.35h-2.643zm16.975 0v-9.855h7.26v1.816h-5.226v1.9h4.209v1.79h-4.209v2.533h5.38v1.816h-7.414zm10.45 0v-9.855h2.033v3.69h4.464v-3.69h2.02v9.855h-2.02V36.34h-4.464v4.323h-2.035.002zm12.116 0v-9.855h2.035v6.419l4.788-6.42h1.751v9.856h-2.02v-6.464l-4.844 6.464h-1.71zm15.364-12.8c0 .619.41 1.03 1.075 1.03.662 0 1.086-.411 1.1-1.03h1.498c-.015 1.478-1.101 2.41-2.585 2.41-1.483 0-2.57-.932-2.585-2.41h1.497zm-3.192 12.8v-9.855h2.034v6.419l4.789-6.42H324v9.856h-2.02v-6.464l-4.844 6.464h-1.71zm-130.994-36h1.284V57h-1.284V4.662z"/>
    </g>
</svg>
