<svg xmlns="http://www.w3.org/2000/svg" xmlns:xlink="http://www.w3.org/1999/xlink" width="143" height="135" viewBox="0 0 143 135">
    <defs>
        <path id="a" d="M1.054 1.423h46.619v83.871H1.054z"/>
        <path id="c" d="M0 85.294h143.514V1.423H0z"/>
    </defs>
    <g fill="none" fill-rule="evenodd">
        <circle cx="71.5" cy="67.5" r="67.5" fill="#4BA1A5" fill-rule="nonzero"/>
        <path stroke="#274E5F" stroke-linecap="round" stroke-linejoin="round" stroke-width=".708" d="M41.403 88.035l-40.8.026M41.403 83.912l-21.58.002"/>
        <path stroke="#274E5F" stroke-linecap="round" stroke-linejoin="round" stroke-width=".716" d="M98.265 53.704l44.638.026M98.488 49.866h22.075"/>
        <g transform="translate(0 23.284)">
            <g transform="translate(46.059)">
                <mask id="b" fill="#fff">
                    <use xlink:href="#a"/>
                </mask>
                <path fill="#274E5F" d="M6.84 1.422h35.048a5.785 5.785 0 0 1 5.785 5.784v72.302a5.786 5.786 0 0 1-5.785 5.787H6.84a5.787 5.787 0 0 1-5.787-5.787V7.206a5.787 5.787 0 0 1 5.787-5.784" mask="url(#b)"/>
            </g>
            <path fill="#C8E2E2" d="M74.576 5.177h-8.323a.676.676 0 0 1-.679-.672.677.677 0 0 1 .68-.673h8.34a.68.68 0 0 1 .678.673.68.68 0 0 1-.684.673l-.012-.001"/>
            <mask id="d" fill="#fff">
                <use xlink:href="#c"/>
            </mask>
            <path fill="#C8E2E2" d="M50.02 72.761h40.805V8.169H50.02zM70.423 76.574a2.839 2.839 0 1 1 0 5.677 2.839 2.839 0 0 1 0-5.677" mask="url(#d)"/>
            <path fill="#FEFEFE" d="M71.596 42.543l-2.167-1.07-1.57 1.053-1.639-1.07-1.85 1.042-2.088-1.057-1.694 1.06-1.826-1.058-1.624 1.066-1.878-1.312.062-28.101h17.64L72.9 41.182z" mask="url(#d)"/>
            <path fill="#274E5F" d="M57.394 18.569h9.869v-1.276h-9.869zM57.394 21.644H70.63v-1.276H57.394zM57.394 24.76h9.869v-1.275h-9.869zM57.394 27.838H70.63v-1.276H57.394zM61.06 33.995h2.138v-1.986H61.06v1.986zm-.72.669h3.576v-3.322H60.34v3.322zM65.284 33.976h2.097v-1.95h-2.097v1.95zm-.74.688h3.575v-3.322h-3.575v3.322zM66.038 37.985h.589l.002.583h-.589zM67.41 37.983h.588v.584h-.587z" mask="url(#d)"/>
            <path fill="#274E5F" d="M67.33 35.926h-.668v-.66l-1.997.001.003 3.303.667-.002-.003-1.98h.667v.658l1.997-.001-.001-1.981-.667.002zM66.03 33.24h.605v-.562h-.605zM61.872 33.24h.604v-.562h-.604zM61.06 37.961h2.138v-1.986H61.06v1.986zm-.72.67h3.576v-3.323H60.34v3.323z" mask="url(#d)"/>
            <path fill="#274E5F" d="M61.872 37.205h.604v-.56h-.604zM78.69 44.28l3.256-3.29a.52.52 0 0 0-.002-.734c-.481-.484-1.684-1.608-2.441-1.608-.836 0-1.29.457-1.592.76-.278.28-.387.374-.66.374a.767.767 0 0 1-.145-.012l-.258-.126a2.526 2.526 0 0 1-.247-.23c-.304-.306-.76-.766-1.598-.766-.841 0-1.297.46-1.599.764-.27.276-.378.37-.651.37a.725.725 0 0 1-.144-.012l-.303-.159c-.069-.06-.14-.13-.208-.2-.302-.303-.758-.763-1.599-.763-.756 0-1.955 1.124-2.436 1.61a.526.526 0 0 0 .004.737l3.32 3.29c-3.257 4.032-7.991 9.473-7.991 13.117 0 2.381.716 4.3 1.945 5.771 2.086 2.5 5.651 3.71 9.698 3.71 6.43 0 11.646-3.05 11.646-9.48 0-3.648-4.74-9.092-7.996-13.123" mask="url(#d)"/>
            <path fill="#FEFEFE" d="M80.232 44.325a1.01 1.01 0 0 1-1.01 1.01h-8.36a1.01 1.01 0 1 1 0-2.02h8.36c.558 0 1.01.452 1.01 1.01M79.702 51.097a6.565 6.565 0 0 0-4.66-1.93 6.566 6.566 0 0 0-4.663 1.93 6.59 6.59 0 0 0 0 9.323 6.568 6.568 0 0 0 4.663 1.933 6.567 6.567 0 0 0 4.66-1.933 6.59 6.59 0 0 0 0-9.323" mask="url(#d)"/>
            <path fill="#274E5F" d="M76.747 55.374c-.268.174-.606.221-.944.221h-1.472v-2.56h1.55c.337 0 .635.068.897.249.296.205.48.54.48 1.03 0 .492-.202.858-.511 1.06m.817-2.801c-.46-.376-.981-.481-1.539-.481H73.37c-.058 0-.116.056-.116.124v4.935h-.4v.892h.4v1.203c0 .067.058.114.116.114h.848a.116.116 0 0 0 .114-.114v-1.203h2.702v-.892h-2.702v-.612h1.646c.54 0 1.068-.087 1.52-.434.53-.385.858-1.03.858-1.79 0-.751-.298-1.357-.791-1.742" mask="url(#d)"/>
        </g>
    </g>
</svg>
