<svg xmlns="http://www.w3.org/2000/svg" xmlns:xlink="http://www.w3.org/1999/xlink" width="141" height="135" viewBox="0 0 141 135">
    <defs>
        <path id="a" d="M0 86.121h126.852V.548H0z"/>
    </defs>
    <g fill="none" fill-rule="evenodd">
        <circle cx="67.5" cy="67.5" r="67.5" fill="#4BA1A5" fill-rule="nonzero"/>
        <path fill="#FEFEFE" d="M31.655 23.879L20.909 35.104v55.563h48.333V23.879z"/>
        <path fill="#C8E2E2" d="M31.455 23.879L20.909 35.132l10.546.171zM79.788 30.03v66.788H31.455V41.256L42.2 30.03z"/>
        <path fill="#E3EEEE" d="M31.455 41.285l10.545.17V30.03z"/>
        <path stroke="#274E5F" stroke-linecap="round" stroke-linejoin="round" stroke-width=".7" d="M60.455 105.606H21.5M60.455 102.09H31.5"/>
        <path stroke="#9DCCCE" stroke-width="1.113" d="M39.364 44.97h34.272M39.364 49.364h34.272M39.364 52.879h34.272"/>
        <path stroke="#9DCCCE" stroke-width="1.082" d="M39.364 57.273h15.818"/>
        <path fill="#9DCCCE" d="M46.394 86.273h6.151V73.97h-6.151z"/>
        <path fill="#C4D2D2" d="M40.242 86.273h6.152v-7.03h-6.152z"/>
        <path fill="#274E5F" d="M52.545 86.273h6.152V68.697h-6.152z"/>
        <path fill="#F5F5F5" d="M66.606 110h73.818V59.91H66.606z"/>
        <path fill="#284E5F" d="M66.606 66.06h73.818v-6.15H66.606z"/>
        <path fill="#FEFEFE" d="M72.758 63.424h1.757v-1.757h-1.757zM69.242 63.424H71v-1.757h-1.758z"/>
        <g transform="translate(13 23)">
            <path fill="#274E5F" d="M104.735 74.11H93.431l-.017-2.064h2.721v-2.4h-2.742l-.014-1.42h2.756v-2.402h-2.777l-.012-1.418h2.789v-2.402h-2.798v-1.42h2.798v-2.4h-2.798v-1.422h2.798V54.36h-2.798v-2.182h11.398v21.93zm-.174-23.06H93.47v-2.607L75.237 51.25v24.587l18.233 3.13v-3.86h11.09c.737 0 1.336-.536 1.336-1.196V52.247c0-.662-.599-1.198-1.335-1.198z"/>
            <mask id="b" fill="#fff">
                <use xlink:href="#a"/>
            </mask>
            <path fill="#274E5F" d="M97.67 56.762h4.734v-2.401H97.67zM97.67 60.583h4.734v-2.401H97.67zM97.67 64.406h4.734v-2.401H97.67zM97.67 68.227h4.734v-2.403H97.67zM97.67 72.046h4.734v-2.4H97.67z" mask="url(#b)"/>
            <path fill="#FEFEFE" d="M80.378 59.751l2.032-.115 1.277 3.5 1.508-3.646 2.032-.116-2.466 4.973 2.466 4.981-2.148-.144-1.451-3.799-1.452 3.654-1.973-.174 2.294-4.402zM100.284 26.037l-2.335 2.575-2.439 2.481c-.446.547-1.192.547-1.64 0l-2.34-2.48-2.434-2.576c-.447-.447-.299-.792.396-.792h1.691v-.3c-.1-3.517-1.789-6.246-4.126-7.833-3.332-2.38-7.958-2.528-11.39.197 7.263-8.328 22.63-2.873 22.63 7.936H99.938c.646 0 .794.345.345.792" mask="url(#b)"/>
        </g>
    </g>
</svg>
